<svg id="icon-voyages-accessibles-inverted" xmlns="http://www.w3.org/2000/svg" viewBox="0 0 504.03 504.03">
  <path fill="#3643ba" stroke="#3643ba" d="M430.2,73.8c-98.42-98.42-258-98.42-356.4,0s-98.42,258,0,356.4h0c98.42,98.42,258,98.42,356.4,0S528.62,172.22,430.2,73.8ZM252,481.5C125.4,481.5,22.5,378.6,22.5,252S125.4,22.5,252,22.5,481.5,125.4,481.5,252,378.6,481.5,252,481.5Z" transform="translate(0.01 0.01)"></path>
  <g>
    <path fill="#3643ba" stroke="#3643ba" d="M175.4,207.1a11.29,11.29,0,0,0,8.2,2.8,10.51,10.51,0,0,0,7.7-3.7,11.09,11.09,0,0,0-.67-15.68l-.13-.12a60.2,60.2,0,0,0-84.8,4.4,10.9,10.9,0,0,0-2.8,8.1,10.7,10.7,0,0,0,3.7,7.8,11.39,11.39,0,0,0,15.9-.9,37.5,37.5,0,0,1,52.9-2.7Z" transform="translate(0.01 0.01)"></path>
    <path fill="#3643ba" stroke="#3643ba" d="M395.2,187.6a11.48,11.48,0,0,0-3.7-7.8,60.11,60.11,0,0,0-84.8,4.5,10.9,10.9,0,0,0-2.8,8.1,10.51,10.51,0,0,0,3.7,7.7,11.09,11.09,0,0,0,15.68-.67l.12-.13a37.3,37.3,0,0,1,26-12.3,36.7,36.7,0,0,1,27,9.5,11.09,11.09,0,0,0,8.1,2.9,11.28,11.28,0,0,0,10.7-11.8Z" transform="translate(0.01 0.01)"></path>
    <path fill="#3643ba" stroke="#3643ba" d="M372.7,312.5a12,12,0,0,0-16.9,1.2c-13.3,15.2-50.1,50.8-103.8,50.8s-90.5-35.6-103.8-50.8a12,12,0,1,0-18.1,15.8c15.5,17.7,58.3,59,121.9,59s106.4-41.3,121.9-59A12.1,12.1,0,0,0,372.7,312.5Z" transform="translate(0.01 0.01)"></path>
  </g>
</svg>