<svg id="icon-expertise-inverted" xmlns="http://www.w3.org/2000/svg" viewBox="0 0 264 372">
  <path fill="#3643ba" stroke="#3643ba" d="M200.5,101.1c-6.8-20.3-15.4-24.6-21.5-24.6s-14.8,4.3-21.6,24.6c-4.7,14.3-7.3,33.2-7.3,53.2,0,4.9.1,9.7.4,14.4a28.37,28.37,0,0,0-14.7-4H123.6v-3.9a32,32,0,0,0,16.8-28.1V117.3h-.1V96.7c0-11-11.6-19.5-21.7-19.5H98.3c-10.1,0-21.8,8.5-21.8,19.5v13.4H63a4.5,4.5,0,0,0,0,9H76.5v13.6a32.09,32.09,0,0,0,16.7,28.1v3.9H81.1a28.82,28.82,0,0,0-25.4,15.1,88,88,0,0,0,6.3,8.8,19.7,19.7,0,0,1,19.1-14.8H97.8a4.69,4.69,0,0,0,4.6-4.6v-5.1a30.8,30.8,0,0,0,12.1,0v5.1a4.69,4.69,0,0,0,4.6,4.6h16.7a19.48,19.48,0,0,1,16,8.2c.4,2.9.9,5.8,1.4,8.6,1.4,7.1,3.8,17.5,8,26.6l4.6-1.7h.1l3.9-1.8a69.75,69.75,0,0,1-3.7-9,136.8,136.8,0,0,1-5.5-26.1L179,163.3l18.3,15.3a161.78,161.78,0,0,1-3.3,18.8,98.58,98.58,0,0,0,11.9-13.9,208.14,208.14,0,0,0,1.9-29.2C207.8,134.3,205.2,115.4,200.5,101.1Zm-115-4.4c0-5.6,7.1-10.5,12.8-10.5h20.3c5.6,0,12.7,4.9,12.7,10.5v13.4H85.5Zm22.9,58.8a22.89,22.89,0,0,1-22.8-22.8V119.1h45.6v13.6A22.8,22.8,0,0,1,108.4,155.5ZM166.1,104c4.5-13.6,9.7-18.4,12.9-18.4s8.3,4.8,12.8,18.4c3.1,9.2,5.2,20.5,6.2,32.9l-16.1-13.4a4.7,4.7,0,0,0-5.9,0l-16.1,13.4C160.9,124.5,163,113.2,166.1,104Zm32.2,63.6-16.4-13.7a4.7,4.7,0,0,0-5.9,0l-16.4,13.7c-.3-4.4-.4-8.8-.4-13.3,0-1.6,0-3.3.1-5L179,132.9l19.7,16.4v5C198.7,158.8,198.6,163.2,198.3,167.6Z" transform="translate(0 0)"></path>
  <g>
    <path fill="#3643ba" stroke="#3643ba" d="M215.7,292.2A6,6,0,0,0,210,288H177.9C215.2,243.7,264,177,264,132,264,59.3,204.8,0,132,0S0,59.3,0,132c0,45,48.8,111.7,86.2,156H54a6,6,0,0,0-5.7,4.2l-24,72a5.9,5.9,0,0,0,.9,5.4A6,6,0,0,0,30,372H234a6,6,0,0,0,4.9-2.4,6.1,6.1,0,0,0,.8-5.4ZM12,132C12,65.9,65.9,12,132,12A120.2,120.2,0,0,1,252,132c0,59.3-98.1,166.3-120,189.4C110.1,298.3,12,191.3,12,132ZM38.3,360l20.1-60h38c8.6,9.9,16.1,18.1,21.6,24H84a6,6,0,0,0,0,12h96a6,6,0,0,0,0-12H146c5.6-5.9,13.1-14.1,21.6-24h38.1l20,60Z" transform="translate(0 0)"></path>
    <path fill="#3643ba" stroke="#3643ba" d="M170.3,226.6h.1a104.37,104.37,0,0,0,25.4-14.9h0a102,102,0,1,0-127.6,0h0s16.3,11.3,25.4,15h.2A102.19,102.19,0,0,0,170.3,226.6ZM98.2,215.5c-8.1-3.3-22.5-13.2-22.5-13.2h0a90,90,0,1,1,112.6,0h0a91.52,91.52,0,0,1-22.4,13.2h-.1a90.55,90.55,0,0,1-67.5,0Z" transform="translate(0 0)"></path>
  </g>
</svg>