<svg class="fill-inherit w-[271px] h-2xl" viewBox="0 0 303 28" xmlns="http://www.w3.org/2000/svg">
    <path fill="#ffffff" d="M57.5511 23.8H70.7951V19.544H62.5911V15.974H69.8571V12.012H62.5911V8.442H70.7951V4.2H57.5511V23.8ZM87.2311 15.358C85.3131 18.41 83.4511 19.684 81.0571 19.684C77.9491 19.684 76.1431 17.5 76.1431 13.706C76.1431 10.108 77.8091 8.316 80.3711 8.316C82.0651 8.316 83.4651 9.072 83.8991 11.592H88.9391C88.3931 6.79 85.3271 3.808 80.4271 3.808C74.7431 3.808 71.0051 7.82599 71.0051 13.986C71.0051 20.188 74.7431 24.192 80.8891 24.192C84.9071 24.192 87.6371 22.512 89.4431 20.244H96.3171V23.8H101.329V4.2H94.2171L87.2311 15.358ZM96.3171 16.31H91.8791L96.3171 9.1V16.31ZM46.7991 4.2H39.4351V23.8H46.7991C52.6371 23.8 56.4031 19.95 56.4031 14C56.4031 8.05 52.6371 4.2 46.7991 4.2ZM46.7291 19.544H44.4751V8.442H46.7291C49.6411 8.442 51.2791 10.5 51.2791 14C51.2791 17.486 49.6411 19.544 46.7291 19.544ZM159.177 3.808C153.255 3.808 149.279 7.826 149.279 14C149.279 20.174 153.255 24.192 159.177 24.192C165.113 24.192 169.075 20.174 169.075 14C169.075 7.82601 165.113 3.808 159.177 3.808ZM159.177 19.684C156.265 19.684 154.431 17.738 154.431 14C154.431 10.262 156.265 8.316 159.177 8.316C162.103 8.316 163.923 10.262 163.923 14C163.923 17.738 162.103 19.684 159.177 19.684ZM102.589 8.442H107.531V23.8H112.571V8.442H117.513V4.2H102.589L102.589 8.442ZM181.941 4.2V14.994L175.445 4.2H170.223V23.8H175.095V12.558L181.857 23.8H186.813V4.2L181.941 4.2ZM142.139 4.2H137.099V23.8H149.741V19.558H142.139V4.2ZM130.603 11.676H123.813V4.2H118.773V23.8H123.813V15.904H130.603V23.8H135.643V4.2H130.603V11.676Z"></path>
    <path fill="#ffffff" d="M25.2113 0C14.267 0 0.65332 11.3236 0.65332 20.7085C0.65332 25.5554 4.37635 28 9.29356 28C12.9042 28 17.2735 26.6794 21.4882 24.1365V5.40893C20.3643 7.33366 15.0818 15.0888 10.839 19.2193C8.6754 21.3266 6.9614 22.2398 5.48624 22.2398C3.82843 22.2398 3.04169 21.1159 3.04169 19.4441C3.04169 11.8575 15.8124 1.99498 24.27 1.99498C27.7542 1.99498 30.002 3.54039 30.002 6.54692C30.002 9.30055 28.1335 12.7566 24.9443 15.9458V21.7481C30.5078 17.3507 33.8375 11.7451 33.8375 7.22127C33.8375 2.4586 30.1285 0 25.2113 0Z"></path>
    <path fill="#ffffff" opacity="0.8" d="M196.789 6.41406V3.86364H211.986V6.41406H205.859V23.5H202.906V6.41406H196.789ZM212.775 23.5V8.77273H215.546V11.1122H215.699C215.968 10.3196 216.441 9.69638 217.118 9.24254C217.802 8.78231 218.576 8.5522 219.439 8.5522C219.618 8.5522 219.829 8.55859 220.071 8.57138C220.321 8.58416 220.516 8.60014 220.656 8.61932V11.3615C220.541 11.3295 220.337 11.2944 220.043 11.256C219.749 11.2113 219.455 11.1889 219.161 11.1889C218.483 11.1889 217.879 11.3327 217.348 11.6204C216.824 11.9016 216.409 12.2947 216.102 12.7997C215.795 13.2983 215.642 13.8672 215.642 14.5064V23.5H212.775ZM226.481 23.826C225.548 23.826 224.704 23.6534 223.95 23.3082C223.196 22.9567 222.598 22.4485 222.157 21.7837C221.722 21.119 221.505 20.304 221.505 19.3388C221.505 18.5078 221.665 17.8239 221.984 17.2869C222.304 16.75 222.736 16.3249 223.279 16.0117C223.822 15.6985 224.429 15.462 225.101 15.3022C225.772 15.1424 226.456 15.021 227.152 14.9379C228.035 14.8356 228.75 14.7525 229.3 14.6886C229.85 14.6183 230.249 14.5064 230.499 14.353C230.748 14.1996 230.873 13.9503 230.873 13.6051V13.538C230.873 12.7006 230.636 12.0518 230.163 11.5916C229.696 11.1314 229 10.9013 228.073 10.9013C227.108 10.9013 226.347 11.1154 225.791 11.5437C225.241 11.9656 224.861 12.4354 224.65 12.9531L221.956 12.3395C222.275 11.4446 222.742 10.7223 223.356 10.1726C223.976 9.61648 224.688 9.21378 225.494 8.96449C226.299 8.70881 227.146 8.58097 228.035 8.58097C228.623 8.58097 229.246 8.65128 229.904 8.7919C230.569 8.92614 231.189 9.17543 231.764 9.53977C232.346 9.90412 232.822 10.4251 233.193 11.1026C233.564 11.7738 233.749 12.6463 233.749 13.7202V23.5H230.949V21.4865H230.834C230.649 21.8572 230.371 22.2216 230 22.5795C229.629 22.9375 229.153 23.2347 228.571 23.4712C227.99 23.7077 227.293 23.826 226.481 23.826ZM227.104 21.5249C227.897 21.5249 228.575 21.3683 229.137 21.055C229.706 20.7418 230.138 20.3327 230.432 19.8278C230.732 19.3164 230.882 18.7699 230.882 18.1882V16.2898C230.78 16.392 230.582 16.4879 230.288 16.5774C230 16.6605 229.671 16.734 229.3 16.7979C228.929 16.8555 228.568 16.9098 228.217 16.9609C227.865 17.0057 227.571 17.044 227.335 17.076C226.778 17.1463 226.27 17.2646 225.81 17.4308C225.356 17.5969 224.992 17.8366 224.717 18.1499C224.449 18.4567 224.314 18.8658 224.314 19.3771C224.314 20.0866 224.576 20.6236 225.101 20.9879C225.625 21.3459 226.293 21.5249 227.104 21.5249ZM248.829 8.77273L243.488 23.5H240.42L235.07 8.77273H238.148L241.877 20.1058H242.031L245.751 8.77273H248.829ZM256.559 23.7972C255.108 23.7972 253.859 23.4872 252.81 22.8672C251.769 22.2408 250.963 21.3619 250.394 20.2305C249.832 19.0927 249.551 17.7599 249.551 16.2322C249.551 14.7237 249.832 13.3942 250.394 12.2436C250.963 11.093 251.756 10.195 252.772 9.54936C253.795 8.90376 254.99 8.58097 256.358 8.58097C257.189 8.58097 257.994 8.71839 258.774 8.99325C259.554 9.26811 260.254 9.69957 260.874 10.2876C261.494 10.8757 261.983 11.6396 262.341 12.5792C262.699 13.5124 262.878 14.647 262.878 15.983V16.9993H251.171V14.8516H260.069C260.069 14.0973 259.915 13.4293 259.608 12.8477C259.302 12.2596 258.87 11.7962 258.314 11.4574C257.764 11.1186 257.119 10.9492 256.377 10.9492C255.572 10.9492 254.869 11.1474 254.268 11.5437C253.673 11.9336 253.213 12.445 252.887 13.0778C252.568 13.7042 252.408 14.3849 252.408 15.12V16.7979C252.408 17.7823 252.58 18.6197 252.926 19.31C253.277 20.0004 253.766 20.5277 254.393 20.892C255.019 21.25 255.751 21.429 256.588 21.429C257.131 21.429 257.627 21.3523 258.074 21.1989C258.522 21.0391 258.908 20.8026 259.234 20.4893C259.56 20.1761 259.81 19.7894 259.982 19.3292L262.696 19.8182C262.478 20.6172 262.089 21.3171 261.526 21.918C260.97 22.5124 260.27 22.9759 259.426 23.3082C258.589 23.6342 257.633 23.7972 256.559 23.7972ZM268.116 3.86364V23.5H265.249V3.86364H268.116Z"></path>
</svg>