<svg class="size-[88px] fill-content-brand" id="icon-garantie-inverted" xmlns="http://www.w3.org/2000/svg" viewBox="0 0 586.3 563.8">
  <path fill="#3643ba" stroke="#3643ba" d="M386,142.2a20,20,0,0,0-28.18,2.47l0,0-86,103.2-44.5-44.5A20,20,0,0,0,199,231.7h0l60,60a20.37,20.37,0,0,0,14.2,5.8h.9a20.2,20.2,0,0,0,14.4-7.2l100-120a20,20,0,0,0-2.5-28.1Z"></path>
  <g>
    <path fill="#3643ba" stroke="#3643ba" d="M475.8,335.4a215.6,215.6,0,0,0,34.9-117.9C510.7,97.6,413.1,0,293.2,0S75.7,97.6,75.7,217.5a216.43,216.43,0,0,0,34.8,117.9L0,445.9l107.6,11.5,9.7,106.4,133-133a220.69,220.69,0,0,0,85.7,0l133.1,133,9.6-106.4,107.6-11.5Zm-342.5,184L126,439.2l-82.3-8.8,78.6-78.5A217.85,217.85,0,0,0,227.8,425ZM95.7,217.5C95.7,108.6,184.3,20,293.2,20s197.5,88.6,197.5,197.5S402.1,415,293.2,415,95.7,326.4,95.7,217.5ZM460.3,439.2,453,519.4,358.5,425a218.17,218.17,0,0,0,105.6-73.1l78.5,78.5Z"></path>
    <path fill="#3643ba" stroke="#3643ba" d="M316.7,56.5a160.23,160.23,0,0,1,22.6,4.9l1,.2a3.52,3.52,0,0,0,1-6.9,174.62,174.62,0,0,0-23.6-5.2,3.54,3.54,0,0,0-1,7Z"></path>
    <path fill="#3643ba" stroke="#3643ba" d="M361.1,69.6a160.34,160.34,0,0,1,20.3,11.2,3.32,3.32,0,0,0,1.9.6,3.61,3.61,0,0,0,2.9-1.6,3.5,3.5,0,0,0-.94-4.86l-.06,0A176.26,176.26,0,0,0,364,63.2a3.59,3.59,0,0,0-4.7,1.8A3.5,3.5,0,0,0,361.1,69.6Z"></path>
    <path fill="#3643ba" stroke="#3643ba" d="M269.5,56.4h.5a162.29,162.29,0,0,1,23.2-1.6h.3a3.5,3.5,0,0,0,3.5-3.5h0a3.4,3.4,0,0,0-3.3-3.5h-.5A163.25,163.25,0,0,0,269,49.5a3.46,3.46,0,0,0,.5,6.9Z"></path>
    <path fill="#3643ba" stroke="#3643ba" d="M224.1,69.8l1.5-.3a153,153,0,0,1,21.7-8.2,3.41,3.41,0,0,0,2.45-4.14s0-.11-.05-.16a3.5,3.5,0,0,0-4.3-2.4,162.21,162.21,0,0,0-22.7,8.5,3.5,3.5,0,0,0-1.8,4.6A3.6,3.6,0,0,0,224.1,69.8Z"></path>
    <path fill="#3643ba" stroke="#3643ba" d="M184.4,95.4a3.54,3.54,0,0,0,2.2-.8,167.78,167.78,0,0,1,18.6-14,3.5,3.5,0,0,0,1.1-4.8,3.7,3.7,0,0,0-4.9-1.1,171.15,171.15,0,0,0-19.3,14.6,3.4,3.4,0,0,0-.5,4.78l.1.12A3.62,3.62,0,0,0,184.4,95.4Z"></path>
    <path fill="#3643ba" stroke="#3643ba" d="M151.5,130.6a3,3,0,0,0,1.9.5,3.38,3.38,0,0,0,2.9-1.6A178.67,178.67,0,0,1,170.2,111a3.51,3.51,0,0,0-5.3-4.6,194.43,194.43,0,0,0-14.5,19.3A3.61,3.61,0,0,0,151.5,130.6Z"></path>
    <path fill="#3643ba" stroke="#3643ba" d="M454.3,194.6a3.5,3.5,0,0,0,3.5,3h.5a3.4,3.4,0,0,0,2.93-3.81l0-.19a160,160,0,0,0-5.1-23.6,3.41,3.41,0,0,0-4.14-2.45l-.16,0a3.5,3.5,0,0,0-2.4,4.3A161.58,161.58,0,0,1,454.3,194.6Z"></path>
    <path fill="#3643ba" stroke="#3643ba" d="M459.4,214.3a3.5,3.5,0,0,0-3.5,3.5,162.35,162.35,0,0,1-1.7,23.1,3.69,3.69,0,0,0,3,4h.5a3.5,3.5,0,0,0,3.5-3,175,175,0,0,0,1.7-24.1A3.5,3.5,0,0,0,459.4,214.3Z"></path>
    <path fill="#3643ba" stroke="#3643ba" d="M441.3,150.2a3.51,3.51,0,0,0,3.2,2l1.5-.3a3.5,3.5,0,0,0,1.7-4.6A175.45,175.45,0,0,0,436.1,126a3.51,3.51,0,1,0-5.9,3.8h0A159.64,159.64,0,0,1,441.3,150.2Z"></path>
    <path fill="#3643ba" stroke="#3643ba" d="M442.8,290a3.9,3.9,0,0,0,1.5.3,3.6,3.6,0,0,0,3.2-2.1,182.46,182.46,0,0,0,8.5-22.6,3.6,3.6,0,0,0-2.4-4.4,3.5,3.5,0,0,0-4.3,2.4,167.88,167.88,0,0,1-8.2,21.7A3.6,3.6,0,0,0,442.8,290Z"></path>
    <path fill="#3643ba" stroke="#3643ba" d="M434.8,304.6a3.61,3.61,0,0,0-4.9,1.1A178.67,178.67,0,0,1,416,324.2a3.5,3.5,0,0,0,2.6,5.8,3.62,3.62,0,0,0,2.7-1.2,194.43,194.43,0,0,0,14.5-19.3,3.5,3.5,0,0,0-.94-4.86Z"></path>
    <path fill="#3643ba" stroke="#3643ba" d="M360.6,365.6a159.82,159.82,0,0,1-21.8,8.2,3.5,3.5,0,0,0-2.4,4.3,3.6,3.6,0,0,0,3.4,2.5h1a167.05,167.05,0,0,0,22.7-8.5,3.56,3.56,0,0,0-2.86-6.51Z"></path>
    <path fill="#3643ba" stroke="#3643ba" d="M269.8,378.6a174.65,174.65,0,0,1-22.6-4.9,3.5,3.5,0,0,0-4.39,2.28v0a3.6,3.6,0,0,0,2.4,4.4,174.32,174.32,0,0,0,23.6,5.1h.5a3.5,3.5,0,0,0,3.5-3A3.6,3.6,0,0,0,269.8,378.6Z"></path>
    <path fill="#3643ba" stroke="#3643ba" d="M316.1,378.7a173.69,173.69,0,0,1-22.9,1.6H293a3.5,3.5,0,0,0,0,7h.2a173.72,173.72,0,0,0,23.9-1.7,3.61,3.61,0,0,0,3-4,3.4,3.4,0,0,0-3.81-2.93Z"></path>
    <path fill="#3643ba" stroke="#3643ba" d="M399.5,340.6A165.77,165.77,0,0,1,381,354.5a3.53,3.53,0,0,0,1.9,6.5,3,3,0,0,0,1.8-.6,172.34,172.34,0,0,0,19.4-14.5,3.51,3.51,0,1,0-4.6-5.3Z"></path>
    <path fill="#3643ba" stroke="#3643ba" d="M418.9,112.4a3.56,3.56,0,0,0,2.3-.8,3.5,3.5,0,0,0,.46-4.93l-.06-.07a172.52,172.52,0,0,0-17.1-17.1,3.5,3.5,0,0,0-4.9.3,3.6,3.6,0,0,0,.3,5,169.25,169.25,0,0,1,16.4,16.4A3.51,3.51,0,0,0,418.9,112.4Z"></path>
    <path fill="#3643ba" stroke="#3643ba" d="M132,240.6a3.39,3.39,0,0,0-3.74-3l-.16,0a3.61,3.61,0,0,0-3,4,174.32,174.32,0,0,0,5.1,23.6,3.51,3.51,0,0,0,3.4,2.5h1a3.6,3.6,0,0,0,2.4-4.3A161.52,161.52,0,0,1,132,240.6Z"></path>
    <path fill="#3643ba" stroke="#3643ba" d="M132.7,174h.9a3.51,3.51,0,0,0,3.4-2.5,166.46,166.46,0,0,1,8.1-21.7,3.5,3.5,0,0,0-1.64-4.67l-.06,0a3.5,3.5,0,0,0-4.6,1.8,165.77,165.77,0,0,0-8.5,22.6,3.5,3.5,0,0,0,2.19,4.44Z"></path>
    <path fill="#3643ba" stroke="#3643ba" d="M126.9,220.9a3.5,3.5,0,0,0,3.5-3.5,162.35,162.35,0,0,1,1.7-23.1,3.69,3.69,0,0,0-3-4,3.61,3.61,0,0,0-4,3,176.73,176.73,0,0,0-1.7,24.1A3.5,3.5,0,0,0,126.9,220.9Z"></path>
    <path fill="#3643ba" stroke="#3643ba" d="M170.1,324a3.4,3.4,0,0,0-4.78-.5l-.12.1a3.51,3.51,0,0,0-.36,4.94l.06.06A172.52,172.52,0,0,0,182,345.7a3.1,3.1,0,0,0,2.3.8,3.51,3.51,0,0,0,2.6-1.2,3.4,3.4,0,0,0-.28-4.8l-.12-.1A181.31,181.31,0,0,1,170.1,324Z"></path>
    <path fill="#3643ba" stroke="#3643ba" d="M225.4,365.5a160.34,160.34,0,0,1-20.3-11.2,3.5,3.5,0,0,0-4.8,1.1,3.41,3.41,0,0,0,.89,4.73l.11.07a176.26,176.26,0,0,0,21.2,11.7,3.9,3.9,0,0,0,1.5.3,3.6,3.6,0,0,0,3.2-2.1A3.5,3.5,0,0,0,225.4,365.5Z"></path>
    <path fill="#3643ba" stroke="#3643ba" d="M145.1,285a3.6,3.6,0,0,0-4.7-1.7,3.5,3.5,0,0,0-1.7,4.6,191.54,191.54,0,0,0,11.6,21.3,3.71,3.71,0,0,0,3,1.6,3.48,3.48,0,0,0,1.9-.6,3.4,3.4,0,0,0,1.07-4.69l-.07-.11A159.64,159.64,0,0,1,145.1,285Z"></path>
  </g>
</svg>