<svg id="icon-demarche-responsable-inverted" xmlns="http://www.w3.org/2000/svg" viewBox="0 0 88 88">
  <g>
    <path fill="#3643ba" stroke="#3643ba" fill-rule="evenodd" clip-rule="evenodd" d="M44 76.7273C47.1824 76.7273 50.2586 76.2731 53.1675 75.4259L53.0864 75.2637C53.0296 75.2921 53.001 75.3159 52.9973 75.3189L52.9974 75.3188C53.0013 75.3151 53.0329 75.2851 53.0881 75.2094C53.1901 75.0696 53.3177 74.8491 53.459 74.5372C53.7412 73.9143 54.0064 73.0869 54.2225 72.1985C54.437 71.3167 54.5896 70.4308 54.6643 69.7121C54.7018 69.3518 54.7173 69.0563 54.7155 68.8375C54.715 68.7763 54.7132 68.7281 54.7111 68.6916C54.6486 68.6018 54.557 68.4791 54.4316 68.3206C54.149 67.9633 53.7519 67.4957 53.2643 66.9384C52.6382 66.2229 51.8977 65.3989 51.1064 64.5182L51.1061 64.5179L51.1054 64.5171C50.6605 64.0221 50.1996 63.5091 49.7339 62.9876C48.4547 61.5548 47.1508 60.0692 46.1369 58.8051C45.6311 58.1746 45.1772 57.5742 44.8289 57.0472C44.526 56.5889 44.1527 55.9712 44.0318 55.3664C43.7884 54.1497 43.6882 51.9319 43.9077 49.9557C44.0176 48.9665 44.2196 47.9188 44.5896 47.0442C44.9289 46.2422 45.6151 45.1173 46.9518 44.85C48.5517 44.53 52.6704 43.6535 54.6197 43.2359C55.1233 43.0754 55.867 42.8954 56.6204 42.8387C57.0212 42.8086 57.488 42.8081 57.9512 42.8961C58.4018 42.9818 58.993 43.1789 59.4753 43.6611C59.745 43.9309 59.9368 44.2483 60.0672 44.4909C60.2077 44.7524 60.3356 45.0397 60.4509 45.3192C60.6133 45.7127 60.7836 46.1745 60.9465 46.6158L60.9466 46.6161L60.9467 46.6165C61.0088 46.7847 61.0698 46.9499 61.1288 47.1073C61.3572 47.7163 61.5723 48.2533 61.7879 48.6741C61.9526 48.9955 62.0622 49.1352 62.0966 49.1791C62.1049 49.1897 62.1088 49.1947 62.1081 49.1954C62.1079 49.1957 62.1068 49.1952 62.105 49.1941C62.4718 49.433 63.5386 49.9452 64.8293 50.5259C65.6418 50.8914 66.4333 51.2364 67.0715 51.5146C67.3869 51.652 67.6649 51.7732 67.8895 51.8725C68.5389 52.0783 69.2995 52.4711 69.8714 52.7805C70.2339 52.9765 70.5253 53.1409 70.7607 53.2737L70.7611 53.2739L70.7612 53.274L70.7615 53.2742L70.7618 53.2744C71.0016 53.4096 71.1832 53.5121 71.3227 53.5819C71.765 53.803 72.0784 54.17 72.2466 54.3826C72.4563 54.6477 72.6596 54.9623 72.8485 55.2987C73.1921 55.9102 73.5348 56.6764 73.8111 57.5239C75.6841 53.4018 76.7273 48.8227 76.7273 44C76.7273 30.5247 68.5831 18.9515 56.9485 13.9341L56.9126 14.0273C55.8464 13.6172 55.0721 13.6208 54.5154 13.7647C53.9515 13.9105 53.4665 14.2379 53.0495 14.7093C52.1573 15.7179 51.7728 17.165 51.7728 17.8184C51.7728 20.3139 50.2684 23.7508 46.7236 24.3416C45.7721 24.5002 44.8925 24.502 44.1642 24.5035C43.869 24.5041 43.5986 24.5046 43.3584 24.5156C42.4101 24.5587 41.1283 24.7278 38.7902 25.5071C38.4569 25.6182 38.2831 25.7656 38.1745 25.9055C38.0565 26.0576 37.9471 26.2916 37.8871 26.6596C37.7596 27.4424 37.8998 28.5459 38.2642 29.8577C38.6188 31.1342 39.1351 32.4367 39.6081 33.5594C39.7122 33.8065 39.8356 34.0944 39.9518 34.3657L39.9521 34.3663L39.9525 34.3672C40.065 34.6299 40.1708 34.8769 40.2459 35.0559C40.4096 35.446 40.5914 35.8914 40.6784 36.2397C40.8729 37.0177 40.7711 37.8891 40.6072 38.5832C40.4343 39.315 40.1346 40.0917 39.7282 40.7395C39.3859 41.2851 38.6932 42.1809 37.5753 42.3519C36.1636 42.5677 35.2519 41.5494 34.7865 40.6851C32.36 36.1784 27.8511 35.8182 26.8182 35.8182C26.0896 35.8182 24.6157 35.7049 23.2589 35.1235C21.8621 34.5249 20.2728 33.2532 20.2728 30.9093C20.2728 29.5999 20.0819 27.5726 19.6479 25.6435C19.4338 24.6921 19.1685 23.8007 18.856 23.0499C14.1214 28.7262 11.2727 36.0304 11.2727 44C11.2727 62.0748 25.9252 76.7273 44 76.7273ZM21.2358 20.4868C27.1261 14.7831 35.1531 11.2727 44 11.2727C46.433 11.2727 48.804 11.5382 51.0856 12.0418C50.9124 12.2021 50.75 12.3693 50.5982 12.5409C49.1382 14.1914 48.5 16.4263 48.5 17.8184C48.5 19.4137 47.5498 20.886 46.1856 21.1134C45.4903 21.2293 45.0567 21.2274 44.4871 21.225C44.1412 21.2235 43.7451 21.2219 43.2098 21.2462C41.9082 21.3054 40.3262 21.5454 37.7553 22.4024C36.8613 22.7003 36.1275 23.205 35.5888 23.8993C35.0597 24.5813 34.7824 25.3636 34.657 26.1334C34.4138 27.6262 34.7082 29.2841 35.1109 30.7336C35.5233 32.2185 36.1064 33.6773 36.5922 34.8302C36.7337 35.166 36.8459 35.4273 36.9485 35.6661L36.9487 35.6664C37.0449 35.8904 37.1326 36.0946 37.228 36.322C37.3129 36.5242 37.3799 36.6892 37.4299 36.8214C37.4546 36.8869 37.4729 36.9383 37.486 36.9775C37.4996 37.0184 37.5039 37.0352 37.5034 37.0334C37.5034 37.0332 37.5034 37.0334 37.5035 37.0338L37.5035 37.0339C37.5048 37.0411 37.5175 37.1136 37.5093 37.2662C37.5009 37.4215 37.4732 37.6146 37.4221 37.8309C37.3755 38.028 37.3148 38.2225 37.2456 38.4034C33.8698 32.9664 28.1812 32.5455 26.8182 32.5455C26.3195 32.5455 25.3389 32.4542 24.548 32.1153C23.797 31.7935 23.5455 31.429 23.5455 30.9093C23.5455 29.3551 23.3272 27.0869 22.8408 24.9251C22.5968 23.8405 22.2771 22.7458 21.865 21.7626C21.6833 21.329 21.4753 20.8969 21.2358 20.4868ZM57.4025 72.972C57.3206 73.3088 57.2298 73.6496 57.1304 73.9868C62.6762 71.555 67.4184 67.6298 70.8482 62.7199C71.2946 61.6514 71.2029 60.1917 70.7635 58.7416C70.5413 58.0082 70.2549 57.3639 69.9952 56.9016C69.8665 56.6724 69.7578 56.5122 69.6831 56.4172C69.5059 56.322 69.274 56.1922 69.0319 56.0566C68.7879 55.92 68.5336 55.7776 68.3145 55.6591C67.6713 55.3112 67.1491 55.0626 66.8686 54.9825L66.7584 54.951L66.6536 54.9044C66.4594 54.8181 66.1719 54.6927 65.8276 54.5426L65.8249 54.5414C65.167 54.2545 64.3025 53.8775 63.4866 53.5105C62.2801 52.9677 60.9045 52.3272 60.2741 51.907C59.5922 51.4524 59.1527 50.7077 58.8754 50.1668C58.5669 49.5649 58.2962 48.8746 58.0644 48.2564C57.9896 48.0568 57.9195 47.8668 57.8526 47.6855L57.8523 47.6847C57.6992 47.2697 57.563 46.9004 57.4255 46.5672C57.3437 46.369 57.2736 46.2139 57.2139 46.0967C57.127 46.0913 57.0113 46.0913 56.866 46.1022C56.3983 46.1374 55.8789 46.2653 55.5629 46.3706L55.4769 46.3993L55.3883 46.4182C53.5419 46.8139 49.5028 47.674 47.7536 48.027C47.719 48.0787 47.667 48.1695 47.6036 48.3194C47.4111 48.7745 47.2551 49.4654 47.1604 50.3171C46.9723 52.01 47.0737 53.8679 47.2373 54.7059C47.2362 54.7002 47.2359 54.6972 47.2365 54.697C47.2377 54.6965 47.2422 54.7054 47.2518 54.7244C47.2825 54.7853 47.3654 54.9495 47.5592 55.2426C47.8277 55.6489 48.2112 56.1607 48.6898 56.7574C49.6447 57.9479 50.8976 59.377 52.1752 60.8079C52.6232 61.3097 53.0759 61.8135 53.5178 62.3052L53.5191 62.3067C54.3217 63.1999 55.0886 64.0534 55.7272 64.7833C56.2239 65.3509 56.6642 65.8677 56.9984 66.2903C57.1648 66.5006 57.3194 66.7058 57.4462 66.8934C57.5471 67.0428 57.723 67.3125 57.8251 67.6189C57.9609 68.0262 57.9854 68.4758 57.9881 68.8112C57.9912 69.1884 57.9651 69.612 57.9195 70.0507C57.828 70.9301 57.6482 71.9617 57.4025 72.972ZM44 80C56.3227 80 67.1992 73.8087 73.6888 64.3671L73.6909 64.3682L73.6984 64.3532C77.6737 58.5637 80 51.5535 80 44C80 24.1177 63.8823 8 44 8C24.1177 8 8 24.1177 8 44C8 63.8823 24.1177 80 44 80ZM57.3728 46.1191C57.3714 46.1187 57.3692 46.118 57.3663 46.117L57.3725 46.1187C57.3741 46.1192 57.3749 46.1195 57.3748 46.1196C57.3747 46.1196 57.374 46.1195 57.3728 46.1191ZM69.6219 56.3462C69.6219 56.3458 69.6268 56.3504 69.6367 56.3613C69.6268 56.3521 69.6219 56.3467 69.6219 56.3462ZM47.8009 47.9675C47.801 47.9678 47.798 47.9713 47.7914 47.9767C47.7976 47.9698 47.8008 47.9671 47.8009 47.9675ZM36.7781 39.2313C36.7777 39.2316 36.7775 39.2318 36.7775 39.2318L36.7804 39.2294C36.7793 39.2303 36.7785 39.2309 36.7781 39.2313Z"></path>
  </g>
</svg>